<mxfile host="app.diagrams.net" modified="2024-03-22T04:30:12.654Z" agent="Mozilla/5.0 (X11; Linux x86_64) AppleWebKit/537.36 (KHTML, like Gecko) Chrome/123.0.0.0 Safari/537.36" etag="ZrLpksrRu_hzLtKm-SiM" version="24.0.7" type="device">
  <diagram name="Page-1" id="E6V2atAHRGryLguYeBfe">
    <mxGraphModel dx="2212" dy="879" grid="1" gridSize="10" guides="1" tooltips="1" connect="1" arrows="1" fold="1" page="1" pageScale="1" pageWidth="850" pageHeight="1100" math="0" shadow="0">
      <root>
        <mxCell id="0" />
        <mxCell id="1" parent="0" />
        <mxCell id="9EYIH-qKI8Z8omrGQdzY-1" value="Actor" style="shape=umlActor;verticalLabelPosition=bottom;verticalAlign=top;html=1;outlineConnect=0;" vertex="1" parent="1">
          <mxGeometry x="50" y="310" width="30" height="60" as="geometry" />
        </mxCell>
        <mxCell id="9EYIH-qKI8Z8omrGQdzY-2" value="" style="endArrow=classic;html=1;rounded=0;" edge="1" parent="1" source="9EYIH-qKI8Z8omrGQdzY-1" target="9EYIH-qKI8Z8omrGQdzY-3">
          <mxGeometry width="50" height="50" relative="1" as="geometry">
            <mxPoint x="400" y="480" as="sourcePoint" />
            <mxPoint x="170" y="340" as="targetPoint" />
          </mxGeometry>
        </mxCell>
        <mxCell id="9EYIH-qKI8Z8omrGQdzY-4" style="edgeStyle=orthogonalEdgeStyle;rounded=0;orthogonalLoop=1;jettySize=auto;html=1;exitX=1;exitY=0.5;exitDx=0;exitDy=0;entryX=0.408;entryY=0.967;entryDx=0;entryDy=0;entryPerimeter=0;" edge="1" parent="1" source="9EYIH-qKI8Z8omrGQdzY-3" target="9EYIH-qKI8Z8omrGQdzY-5">
          <mxGeometry relative="1" as="geometry">
            <mxPoint x="350" y="230" as="targetPoint" />
          </mxGeometry>
        </mxCell>
        <mxCell id="9EYIH-qKI8Z8omrGQdzY-6" style="edgeStyle=orthogonalEdgeStyle;rounded=0;orthogonalLoop=1;jettySize=auto;html=1;exitX=1;exitY=1;exitDx=0;exitDy=0;" edge="1" parent="1" source="9EYIH-qKI8Z8omrGQdzY-3" target="9EYIH-qKI8Z8omrGQdzY-7">
          <mxGeometry relative="1" as="geometry">
            <mxPoint x="580" y="390" as="targetPoint" />
          </mxGeometry>
        </mxCell>
        <mxCell id="9EYIH-qKI8Z8omrGQdzY-8" style="edgeStyle=orthogonalEdgeStyle;rounded=0;orthogonalLoop=1;jettySize=auto;html=1;" edge="1" parent="1" source="9EYIH-qKI8Z8omrGQdzY-3" target="9EYIH-qKI8Z8omrGQdzY-9">
          <mxGeometry relative="1" as="geometry">
            <mxPoint x="200" y="540" as="targetPoint" />
          </mxGeometry>
        </mxCell>
        <mxCell id="9EYIH-qKI8Z8omrGQdzY-12" style="edgeStyle=orthogonalEdgeStyle;rounded=0;orthogonalLoop=1;jettySize=auto;html=1;exitX=1;exitY=0;exitDx=0;exitDy=0;" edge="1" parent="1" source="9EYIH-qKI8Z8omrGQdzY-3">
          <mxGeometry relative="1" as="geometry">
            <mxPoint x="160" y="120" as="targetPoint" />
          </mxGeometry>
        </mxCell>
        <mxCell id="9EYIH-qKI8Z8omrGQdzY-3" value="Diamond&lt;div&gt;NFT MarketPlace&lt;/div&gt;" style="rhombus;whiteSpace=wrap;html=1;" vertex="1" parent="1">
          <mxGeometry x="140" y="290" width="120" height="100" as="geometry" />
        </mxCell>
        <mxCell id="9EYIH-qKI8Z8omrGQdzY-5" value="Marketplace Facet" style="shape=parallelogram;perimeter=parallelogramPerimeter;whiteSpace=wrap;html=1;fixedSize=1;" vertex="1" parent="1">
          <mxGeometry x="340" y="70" width="170" height="60" as="geometry" />
        </mxCell>
        <mxCell id="9EYIH-qKI8Z8omrGQdzY-7" value="ERC721 Facet" style="shape=parallelogram;perimeter=parallelogramPerimeter;whiteSpace=wrap;html=1;fixedSize=1;" vertex="1" parent="1">
          <mxGeometry x="620" y="390" width="170" height="60" as="geometry" />
        </mxCell>
        <mxCell id="9EYIH-qKI8Z8omrGQdzY-9" value="" style="shape=parallelogram;perimeter=parallelogramPerimeter;whiteSpace=wrap;html=1;fixedSize=1;" vertex="1" parent="1">
          <mxGeometry x="-150" y="460" width="490" height="210" as="geometry" />
        </mxCell>
        <mxCell id="9EYIH-qKI8Z8omrGQdzY-10" value="listing[address]price" style="text;html=1;align=center;verticalAlign=middle;whiteSpace=wrap;rounded=0;" vertex="1" parent="1">
          <mxGeometry x="-100" y="470" width="420" height="30" as="geometry" />
        </mxCell>
        <mxCell id="9EYIH-qKI8Z8omrGQdzY-11" value="ERC721 Variables" style="text;html=1;align=center;verticalAlign=middle;whiteSpace=wrap;rounded=0;" vertex="1" parent="1">
          <mxGeometry x="-100" y="500" width="420" height="30" as="geometry" />
        </mxCell>
        <mxCell id="9EYIH-qKI8Z8omrGQdzY-13" value="Ownership Facet" style="shape=parallelogram;perimeter=parallelogramPerimeter;whiteSpace=wrap;html=1;fixedSize=1;" vertex="1" parent="1">
          <mxGeometry x="80" y="60" width="170" height="60" as="geometry" />
        </mxCell>
        <mxCell id="9EYIH-qKI8Z8omrGQdzY-16" value="" style="endArrow=none;html=1;rounded=0;exitX=0;exitY=0.25;exitDx=0;exitDy=0;entryX=1;entryY=0.25;entryDx=0;entryDy=0;" edge="1" parent="1">
          <mxGeometry width="50" height="50" relative="1" as="geometry">
            <mxPoint x="-140.1000000000002" y="530" as="sourcePoint" />
            <mxPoint x="330.0958333333335" y="528.2375" as="targetPoint" />
          </mxGeometry>
        </mxCell>
        <mxCell id="9EYIH-qKI8Z8omrGQdzY-17" value="listNft(_id, _price)" style="text;html=1;align=center;verticalAlign=middle;whiteSpace=wrap;rounded=0;" vertex="1" parent="1">
          <mxGeometry x="-100" y="536" width="420" height="30" as="geometry" />
        </mxCell>
        <mxCell id="9EYIH-qKI8Z8omrGQdzY-18" value="" style="shape=parallelogram;perimeter=parallelogramPerimeter;whiteSpace=wrap;html=1;fixedSize=1;" vertex="1" parent="1">
          <mxGeometry x="520" y="510" width="320" height="70" as="geometry" />
        </mxCell>
        <mxCell id="9EYIH-qKI8Z8omrGQdzY-19" style="edgeStyle=orthogonalEdgeStyle;rounded=0;orthogonalLoop=1;jettySize=auto;html=1;entryX=0.578;entryY=-0.018;entryDx=0;entryDy=0;entryPerimeter=0;" edge="1" parent="1" source="9EYIH-qKI8Z8omrGQdzY-7" target="9EYIH-qKI8Z8omrGQdzY-18">
          <mxGeometry relative="1" as="geometry" />
        </mxCell>
        <mxCell id="9EYIH-qKI8Z8omrGQdzY-20" value="ERC721 Functions" style="text;html=1;align=center;verticalAlign=middle;whiteSpace=wrap;rounded=0;" vertex="1" parent="1">
          <mxGeometry x="540" y="530" width="290" height="30" as="geometry" />
        </mxCell>
        <mxCell id="9EYIH-qKI8Z8omrGQdzY-21" value="buyNft(_id)" style="text;html=1;align=center;verticalAlign=middle;whiteSpace=wrap;rounded=0;" vertex="1" parent="1">
          <mxGeometry x="-115" y="566" width="420" height="30" as="geometry" />
        </mxCell>
        <mxCell id="9EYIH-qKI8Z8omrGQdzY-22" value="getNftPrice(_id)" style="text;html=1;align=center;verticalAlign=middle;whiteSpace=wrap;rounded=0;" vertex="1" parent="1">
          <mxGeometry x="-115" y="590" width="420" height="30" as="geometry" />
        </mxCell>
      </root>
    </mxGraphModel>
  </diagram>
</mxfile>
